# xmcd
#
# Track frame offsets: 
#        150
#        23702
#        42389
#        56224
#        62741
#        82041
#        95883
#        114604
#        119609
#        142642
#        148544
#        160427
#        165568
#        171996
#        190653
#        215743
#        229083
#
# Disc length: 3618 seconds
#
# Revision: 0
# Processed by: cddbd v1.5.2PL0 Copyright (c) Steve Scherf et al.
# Submitted via: ExactAudioCopy v1.1
#
DISCID=fa0e2011
DTITLE=Frank Ocean - Blonde
DYEAR=2016
DGENRE=Soul
TTITLE0=Nikes
TTITLE1=Ivy
TTITLE2=Pink and White
TTITLE3=Be Yourself
TTITLE4=Solo
TTITLE5=Skyline To
TTITLE6=Self Control
TTITLE7=Good Guy
TTITLE8=Nights
TTITLE9=Solo (Reprise)
TTITLE10=Pretty Sweet
TTITLE11=Facebook Story
TTITLE12=Close to You
TTITLE13=White Ferrari
TTITLE14=Seigfried
TTITLE15=Godspeed
TTITLE16=Futura Free
EXTD=
EXTT0=
EXTT1=
EXTT2=
EXTT3=
EXTT4=
EXTT5=
EXTT6=
EXTT7=
EXTT8=
EXTT9=
EXTT10=
EXTT11=
EXTT12=
EXTT13=
EXTT14=
EXTT15=
EXTT16=
PLAYORDER=
